<?xml version="1.0" encoding="UTF-8" standalone="no"?>
<!-- Generator: Adobe Illustrator 18.1.1, SVG Export Plug-In . SVG Version: 6.00 Build 0)  -->

<svg
   xmlns:dc="http://purl.org/dc/elements/1.1/"
   xmlns:cc="http://creativecommons.org/ns#"
   xmlns:rdf="http://www.w3.org/1999/02/22-rdf-syntax-ns#"
   xmlns:svg="http://www.w3.org/2000/svg"
   xmlns="http://www.w3.org/2000/svg"
   xmlns:sodipodi="http://sodipodi.sourceforge.net/DTD/sodipodi-0.dtd"
   xmlns:inkscape="http://www.inkscape.org/namespaces/inkscape"
   version="1.1"
   id="Capa_1"
   x="0px"
   y="0px"
   viewBox="0 0 459.419 459.419"
   style="enable-background:new 0 0 459.419 459.419;"
   xml:space="preserve"
   sodipodi:docname="stock.svg"
   inkscape:version="0.92.4 (5da689c313, 2019-01-14)"><metadata
   id="metadata3859"><rdf:RDF><cc:Work
       rdf:about=""><dc:format>image/svg+xml</dc:format><dc:type
         rdf:resource="http://purl.org/dc/dcmitype/StillImage" /></cc:Work></rdf:RDF></metadata><defs
   id="defs3857" /><sodipodi:namedview
   pagecolor="#ffffff"
   bordercolor="#666666"
   borderopacity="1"
   objecttolerance="10"
   gridtolerance="10"
   guidetolerance="10"
   inkscape:pageopacity="0"
   inkscape:pageshadow="2"
   inkscape:window-width="1920"
   inkscape:window-height="1017"
   id="namedview3855"
   showgrid="false"
   inkscape:zoom="1.8458096"
   inkscape:cx="141.67225"
   inkscape:cy="229.7095"
   inkscape:window-x="1912"
   inkscape:window-y="-8"
   inkscape:window-maximized="1"
   inkscape:current-layer="Capa_1" />
<g
   id="g3822">
	<g
   id="g3820">
		<polygon
   style="fill:#010002;"
   points="83.115,172.911 376.304,172.911 376.304,459.419 458.777,459.419 458.777,106.956     223.178,0 0.642,106.956 0.642,459.419 83.115,459.419   "
   id="polygon3800" />
		<rect
   x="171.155"
   y="403.543"
   style="fill:#010002;"
   width="52.023"
   height="44.878"
   id="rect3802" />
		<rect
   x="235.005"
   y="403.543"
   style="fill:#010002;"
   width="52.023"
   height="44.878"
   id="rect3804" />
		<rect
   x="107.313"
   y="403.543"
   style="fill:#010002;"
   width="52.023"
   height="44.878"
   id="rect3806" />
		<rect
   x="171.155"
   y="341.985"
   style="fill:#010002;"
   width="52.023"
   height="44.878"
   id="rect3808" />
		<rect
   x="107.313"
   y="341.985"
   style="fill:#010002;"
   width="52.023"
   height="44.878"
   id="rect3810" />
		<rect
   x="235.005"
   y="341.985"
   style="fill:#010002;"
   width="52.023"
   height="44.878"
   id="rect3812" />
		<rect
   x="171.155"
   y="280.436"
   style="fill:#010002;"
   width="52.023"
   height="44.878"
   id="rect3814" />
		<rect
   x="107.313"
   y="280.436"
   style="fill:#010002;"
   width="52.023"
   height="44.878"
   id="rect3816" />
		<rect
   x="298.847"
   y="403.543"
   style="fill:#010002;"
   width="52.023"
   height="44.878"
   id="rect3818" />
	</g>
</g>
<g
   id="g3824">
</g>
<g
   id="g3826">
</g>
<g
   id="g3828">
</g>
<g
   id="g3830">
</g>
<g
   id="g3832">
</g>
<g
   id="g3834">
</g>
<g
   id="g3836">
</g>
<g
   id="g3838">
</g>
<g
   id="g3840">
</g>
<g
   id="g3842">
</g>
<g
   id="g3844">
</g>
<g
   id="g3846">
</g>
<g
   id="g3848">
</g>
<g
   id="g3850">
</g>
<g
   id="g3852">
</g>
<path
   style="stroke-width:0.54176772;fill:#ffffff"
   d="M 1.218154,283.05651 1.3544192,106.91071 112.27388,53.603907 223.19335,0.29710395 340.62897,53.604334 l 117.43562,53.307226 0.13626,176.14537 0.13627,176.14537 H 417.43283 376.52855 V 315.90474 172.60719 H 229.7095 82.890458 V 315.90474 459.2023 H 41.986173 1.0818887 Z"
   id="path3861"
   inkscape:connector-curvature="0" /><path
   style="fill:#00ffff;stroke-width:0.54176772"
   d="M 1.5262803,283.26327 C 1.6208039,186.49677 1.8645993,107.17094 2.068048,106.98365 2.7228592,106.38085 222.62626,0.86682831 223.22776,0.86682831 c 0.62227,0 233.50234,105.55591169 234.12527,106.12032169 0.20459,0.18537 0.44839,79.50962 0.54177,176.27613 l 0.16979,175.9391 -40.76802,-4e-5 -40.76802,-4e-5 V 315.90474 172.60719 H 229.7095 82.890458 V 315.90474 459.2023 l -40.76802,3e-5 -40.7680188,4e-5 z"
   id="path3863"
   inkscape:connector-curvature="0" /><path
   style="fill:#00ffff;stroke-width:0.54176772"
   d="m 1.7033382,332.29322 c 0.042919,-69.8 0.2257659,-149.04617 0.4063257,-176.10261 L 2.4379546,106.99709 18.149218,99.388459 C 72.152167,73.235968 219.24455,2.8201396 221.80862,1.8929587 c 2.17424,-0.786213 -8.07774,-5.2308321 82.66483,35.8383153 75.02061,33.953553 145.78531,66.112466 149.57414,67.973736 l 3.02597,1.48652 0.35983,66.16199 c 0.1979,36.38909 0.35993,115.59151 0.36007,176.00538 l 2.4e-4,109.8434 H 417.16113 376.52855 V 315.90474 172.60719 H 229.7095 82.890458 V 315.90474 459.2023 H 42.25788 1.6253031 Z"
   id="path3865"
   inkscape:connector-curvature="0" /><path
   style="fill:#00ffff;stroke-width:0.54176772"
   d="m 171.19859,302.63144 v -22.21248 h 25.73397 25.73396 v 22.21248 22.21247 h -25.73396 -25.73397 z"
   id="path3867"
   inkscape:connector-curvature="0" /><path
   style="fill:#00ffff;stroke-width:0.54176772"
   d="m 107.81177,302.63144 v -22.21248 h 25.73397 25.73396 v 22.21248 22.21247 h -25.73396 -25.73397 z"
   id="path3869"
   inkscape:connector-curvature="0" /><path
   style="fill:#00ffff;stroke-width:0.54176772"
   d="m 107.81177,364.39295 v -22.21247 h 25.73397 25.73396 v 22.21247 22.21248 h -25.73396 -25.73397 z"
   id="path3871"
   inkscape:connector-curvature="0" /><path
   style="fill:#666666;stroke-width:0.54176772;fill-opacity:1"
   d="m 171.19859,364.39295 v -22.21247 h 25.73397 25.73396 v 22.21247 22.21248 h -25.73396 -25.73397 z"
   id="path3873"
   inkscape:connector-curvature="0" /><path
   style="fill:#666666;fill-opacity:1;stroke-width:0.54176772"
   d="m 108.08266,302.63144 v -22.21248 h 25.46308 25.46308 v 22.21248 22.21247 h -25.46308 -25.46308 z"
   id="path4680"
   inkscape:connector-curvature="0" /><path
   style="fill:#666666;fill-opacity:1;stroke-width:0.54176772"
   d="m 171.46948,302.63144 v -22.21248 h 25.46308 25.46308 v 22.21248 22.21247 h -25.46308 -25.46308 z"
   id="path4682"
   inkscape:connector-curvature="0" /><path
   style="fill:#666666;fill-opacity:1;stroke-width:0.54176772"
   d="m 108.08266,364.39295 v -22.21247 h 25.46308 25.46308 v 22.21247 22.21248 h -25.46308 -25.46308 z"
   id="path4684"
   inkscape:connector-curvature="0" /><path
   style="fill:#666666;fill-opacity:1;stroke-width:0.54176772"
   d="m 235.39806,364.39295 v -22.21247 h 25.73397 25.73397 v 22.21247 22.21248 h -25.73397 -25.73397 z"
   id="path4686"
   inkscape:connector-curvature="0" /><path
   style="fill:#666666;fill-opacity:1;stroke-width:0.54176772"
   d="m 107.54089,426.15447 v -22.21248 h 25.73396 25.73397 v 22.21248 22.21248 h -25.73397 -25.73396 z"
   id="path4688"
   inkscape:connector-curvature="0" /><path
   style="fill:#666666;fill-opacity:1;stroke-width:0.54176772"
   d="m 171.46948,426.15447 v -22.21248 h 25.73396 25.73397 v 22.21248 22.21248 h -25.73397 -25.73396 z"
   id="path4690"
   inkscape:connector-curvature="0" /><path
   style="fill:#666666;fill-opacity:1;stroke-width:0.54176772"
   d="m 235.39806,426.15447 v -22.21248 h 25.73397 25.73397 v 22.21248 22.21248 h -25.73397 -25.73397 z"
   id="path4692"
   inkscape:connector-curvature="0" /><path
   style="fill:#666666;fill-opacity:1;stroke-width:0.54176772"
   d="m 299.32665,426.15447 v -22.21248 h 25.73397 25.73396 v 22.21248 22.21248 h -25.73396 -25.73397 z"
   id="path4694"
   inkscape:connector-curvature="0" /><path
   style="fill:#666666;fill-opacity:1;stroke-width:0.54176772;stroke:#000000;stroke-opacity:1"
   d="M 1.6520891,291.93152 C 1.8030219,199.9326 2.0680056,120.68851 2.2409417,115.83355 l 0.3144294,-8.8272 4.3274234,-2.17578 C 15.70748,100.3936 169.27195,26.664177 205.51079,9.4652283 c 9.3366,-4.4311478 17.32542,-8.0566323 17.75294,-8.0566323 1.18455,0 55.18995,24.328852 183.33293,82.589527 l 50.11351,22.784287 0.34195,5.1468 c 0.18806,2.83073 0.49889,82.12521 0.69072,176.20994 l 0.34878,171.06315 h -40.64609 -40.6461 V 315.90474 172.60719 H 229.7095 82.619574 V 315.90474 459.2023 H 41.99862 1.3776659 Z"
   id="path4696"
   inkscape:connector-curvature="0" /><path
   style="fill:#666666;fill-opacity:1;stroke:#000000;stroke-width:0.54176772;stroke-opacity:1"
   d="M 2.0963269,293.28594 C 2.2901102,202.32992 2.5995755,123.24298 2.7840275,117.5372 L 3.1193946,107.16304 13.207703,102.30109 C 107.58681,56.816121 208.37808,8.5424625 217.61595,4.4004126 l 5.78478,-2.5937647 18.32388,8.1457276 C 265.83926,20.672339 303.08162,37.507923 387.15525,75.694986 l 69.13762,31.402984 0.34124,17.99144 c 0.18769,9.89529 0.49883,88.99687 0.69143,175.78128 l 0.35017,157.78984 H 417.50846 377.3412 V 315.36298 172.06542 H 229.7095 82.077806 V 315.36298 458.66053 H 41.9109 1.7439934 Z"
   id="path4706"
   inkscape:connector-curvature="0" /><path
   style="fill:#666666;fill-opacity:1;stroke:#000000;stroke-width:0.54176772;stroke-opacity:1"
   d="m 108.08266,302.63144 v -22.21248 h 25.46308 25.46308 v 22.21248 22.21247 h -25.46308 -25.46308 z"
   id="path4708"
   inkscape:connector-curvature="0" /><path
   style="fill:#666666;fill-opacity:1;stroke:#000000;stroke-width:0.54176772;stroke-opacity:1"
   d="m 171.46948,302.63144 v -22.21248 h 25.46308 25.46308 v 22.21248 22.21247 h -25.46308 -25.46308 z"
   id="path4710"
   inkscape:connector-curvature="0" /><path
   style="fill:#666666;fill-opacity:1;stroke:#666666;stroke-width:0.54176772;stroke-opacity:1"
   d="m 108.08266,364.39295 v -22.21247 h 25.46308 25.46308 v 22.21247 22.21248 h -25.46308 -25.46308 z"
   id="path4712"
   inkscape:connector-curvature="0" /><path
   style="fill:#666666;fill-opacity:1;stroke:#666666;stroke-width:0.54176772;stroke-opacity:1"
   d="m 108.62442,302.63144 v -21.67071 h 24.92132 24.92131 v 21.67071 21.6707 h -24.92131 -24.92132 z"
   id="path4714"
   inkscape:connector-curvature="0" /><path
   style="fill:#666666;fill-opacity:1;stroke:#666666;stroke-width:0.54176772;stroke-opacity:1"
   d="m 172.01124,302.63144 v -21.67071 h 24.92132 24.92131 v 21.67071 21.6707 h -24.92131 -24.92132 z"
   id="path4716"
   inkscape:connector-curvature="0" /><path
   style="fill:#666666;fill-opacity:1;stroke:#666666;stroke-width:0.54176772;stroke-opacity:1"
   d="m 108.08266,364.39295 v -22.21247 h 25.46308 25.46308 v 22.21247 22.21248 h -25.46308 -25.46308 z"
   id="path4718"
   inkscape:connector-curvature="0" /><path
   style="fill:#666666;fill-opacity:1;stroke:#666666;stroke-width:0.54176772;stroke-opacity:1"
   d="m 170.92771,364.39295 v -22.21247 h 25.73396 25.73397 v 22.21247 22.21248 h -25.73397 -25.73396 z"
   id="path4720"
   inkscape:connector-curvature="0" /><path
   style="fill:#666666;fill-opacity:1;stroke:#666666;stroke-width:0.54176772;stroke-opacity:1"
   d="m 235.39806,364.39295 v -22.21247 h 25.73397 25.73397 v 22.21247 22.21248 h -25.73397 -25.73397 z"
   id="path4722"
   inkscape:connector-curvature="0" /><path
   style="fill:#666666;fill-opacity:1;stroke:#666666;stroke-width:0.54176772;stroke-opacity:1"
   d="m 107.54089,426.15447 v -22.21248 h 26.00485 26.00485 v 22.21248 22.21248 h -26.00485 -26.00485 z"
   id="path4724"
   inkscape:connector-curvature="0" /><path
   style="fill:#666666;fill-opacity:1;stroke:#666666;stroke-width:0.54176772;stroke-opacity:1"
   d="m 170.92771,426.15447 v -22.21248 h 26.00485 26.00485 v 22.21248 22.21248 h -26.00485 -26.00485 z"
   id="path4726"
   inkscape:connector-curvature="0" /><path
   style="fill:#666666;fill-opacity:1;stroke:#666666;stroke-width:0.54176772;stroke-opacity:1"
   d="m 235.39806,426.15447 v -22.21248 h 25.73397 25.73397 v 22.21248 22.21248 h -25.73397 -25.73397 z"
   id="path4728"
   inkscape:connector-curvature="0" /><path
   style="fill:#666666;fill-opacity:1;stroke:#666666;stroke-width:0.54176772;stroke-opacity:1"
   d="m 299.32665,426.15447 v -22.21248 h 25.73397 25.73396 v 22.21248 22.21248 h -25.73396 -25.73397 z"
   id="path4730"
   inkscape:connector-curvature="0" /><path
   style="fill:#666666;fill-opacity:1;stroke:#666666;stroke-width:0.54176772;stroke-opacity:1"
   d="m 172.01124,302.63144 v -21.67071 h 24.92132 24.92131 v 21.67071 21.6707 h -24.92131 -24.92132 z"
   id="path4732"
   inkscape:connector-curvature="0" /><path
   style="fill:#666666;fill-opacity:1;stroke:#666666;stroke-width:0.54176772;stroke-opacity:1"
   d="m 172.01124,302.63144 v -21.67071 h 24.92132 24.92131 v 21.67071 21.6707 h -24.92131 -24.92132 z"
   id="path4734"
   inkscape:connector-curvature="0" /><path
   style="fill:#666666;fill-opacity:1;stroke:#666666;stroke-width:0.54176772;stroke-opacity:1"
   d="m 171.71903,324.17102 c -0.14431,-0.37604 -0.19854,-10.31315 -0.12052,-22.08245 l 0.14185,-21.39873 h 25.1922 25.1922 v 21.9416 21.94159 l -25.07168,0.14086 c -19.78884,0.11118 -25.12697,-0.003 -25.33405,-0.54287 z"
   id="path4736"
   inkscape:connector-curvature="0" /><path
   style="fill:#666666;fill-opacity:1;stroke:#666666;stroke-width:0.54176772;stroke-opacity:1"
   d="m 108.62442,302.63144 v -21.67071 h 24.92132 24.92131 v 21.67071 21.6707 h -24.92131 -24.92132 z"
   id="path4738"
   inkscape:connector-curvature="0" /><path
   style="fill:#666666;fill-opacity:1;stroke:#666666;stroke-width:0.54176772;stroke-opacity:1"
   d="M 2.6853331,290.30622 C 2.9180823,198.00932 3.262382,119.09149 3.4504436,114.93326 L 3.7923739,107.37285 28.984572,95.248661 C 151.2322,36.414829 222.32177,2.4921314 223.36833,2.4921314 c 1.01374,0 70.94345,31.5444186 212.2129,95.7265816 l 20.0454,9.107117 0.32997,12.45983 c 0.18147,6.85291 0.52544,85.78132 0.76437,175.39647 l 0.43441,162.93663 h -39.63621 -39.6362 V 314.82121 171.52365 H 229.7095 81.536038 V 314.82121 458.11876 H 41.899096 2.2621527 Z"
   id="path4740"
   inkscape:connector-curvature="0" /><path
   style="fill:#666666;fill-opacity:1;stroke:#666666;stroke-width:0.54176772;stroke-opacity:1"
   d="M 2.141774,417.35074 C 2.3032413,394.92833 2.5619184,318.8032 2.716612,248.18378 2.8713056,177.56436 3.1498782,116.96249 3.3356624,113.51296 L 3.6734518,107.24108 24.320085,97.312769 C 127.46658,47.712896 192.03161,16.815079 212.55632,7.2316744 222.08765,2.781304 223.18789,2.389044 224.74609,2.8857569 227.67616,3.8197818 290.51573,32.148082 405.29696,84.278726 l 50.43911,22.908134 0.34759,10.90402 c 0.19117,5.9972 0.47189,68.31784 0.62381,138.4903 0.15192,70.17246 0.40882,144.22533 0.5709,164.56194 l 0.29467,36.97564 H 417.72902 377.88499 L 377.74854,314.95665 377.61208,171.79454 H 229.7095 81.806922 l -0.136455,143.16211 -0.13645,143.16211 H 41.691107 1.848197 Z"
   id="path4742"
   inkscape:connector-curvature="0" /><path
   style="fill:#666666;fill-opacity:1;stroke:#666666;stroke-width:0.542;stroke-opacity:1;stroke-miterlimit:4;stroke-dasharray:none"
   d="M 2.1123203,361.27779 C 2.790805,160.6023 3.0122826,114.80048 3.3224582,111.01985 l 0.3190732,-3.88907 4.4095629,-2.13162 C 27.875258,95.416007 167.72822,28.319135 185.25096,19.98447 216.08679,5.3174447 222.26022,2.4921314 223.47248,2.4921314 c 1.70574,0 36.59731,15.6793156 205.33665,92.2726876 l 26.8175,12.172871 0.34074,4.79827 c 0.32246,4.54081 0.57451,53.02624 1.34232,258.21011 l 0.32995,88.17269 H 417.7613 377.88297 l -0.10879,-27.49471 c -0.0598,-15.12209 -0.14355,-28.34799 -0.18602,-29.39089 -0.0425,-1.04291 -0.11541,-53.03229 -0.16209,-115.53197 L 377.3412,172.06542 H 229.7095 82.077806 l -0.08487,112.55224 c -0.0467,61.90373 -0.119617,113.40552 -0.162086,114.44842 -0.04248,1.04291 -0.126178,14.7564 -0.186016,30.47444 l -0.108793,28.57824 H 41.660469 1.7849006 Z"
   id="path4744"
   inkscape:connector-curvature="0" /><path
   style="fill:#666666;fill-opacity:1;stroke:#666666;stroke-width:0.29363808;stroke-miterlimit:4;stroke-dasharray:none;stroke-opacity:1"
   d="M 1.8800962,458.2577 C 1.4188005,446.50885 2.8875819,110.30485 3.4083534,108.43969 3.8244966,106.94927 7.192755,105.24177 55.561615,82.001265 173.19714,25.479181 217.23594,4.5064131 221.44755,3.0007675 223.9746,2.097345 223.314,1.8681773 241.89928,10.095499 c 24.42741,10.813515 207.34808,93.612721 211.89404,95.914041 1.89229,0.95794 1.97105,1.11728 2.31054,4.67468 0.33014,3.45935 1.3233,212.57621 1.45067,305.44755 l 0.058,42.25788 h -40.0002 -40.00021 L 377.47563,315.22753 377.33918,172.06542 H 229.7095 82.079827 l -0.13645,143.16211 -0.136455,143.16212 -39.955367,0.13893 c -21.975453,0.0764 -39.9626089,-0.0455 -39.9714588,-0.27088 z"
   id="path4746"
   inkscape:connector-curvature="0" /><path
   style="fill:#666666;fill-opacity:1;stroke:#666666;stroke-width:0.29363808;stroke-miterlimit:4;stroke-dasharray:none;stroke-opacity:1"
   d="M 1.5235328,457.77803 C 1.3372767,457.29265 1.3461241,449.91784 1.5431936,441.38956 1.7402634,432.86127 1.9435638,394.06828 1.9949724,355.1829 2.1398414,245.60427 2.8088298,111.11382 3.2199321,108.92245 3.64828,106.63916 -4.0956381,110.58829 66.095659,76.858069 158.54241,32.433061 209.90335,7.9331423 218.42319,4.1956229 c 2.13575,-0.9369203 4.40551,-1.7034915 5.04392,-1.7034915 0.63841,0 4.37075,1.3707611 8.29411,3.0461358 11.33575,4.8406668 85.16205,38.1508958 189.02553,85.2878198 l 35.04815,15.906093 0.34834,3.27572 c 0.35024,3.2936 0.97459,122.57283 1.35847,259.53185 0.11358,40.52422 0.21675,77.09354 0.22926,81.26515 l 0.0228,7.58475 -40.22625,0.13891 -40.22625,0.13891 V 315.36645 l -2e-5,-143.30103 H 229.7095 82.077806 V 315.36298 458.66053 H 41.969993 c -36.5625136,0 -40.1377471,-0.078 -40.4464602,-0.8825 z"
   id="path4748"
   inkscape:connector-curvature="0" /><path
   style="fill:#666666;fill-opacity:1;stroke:#666666;stroke-width:0.29363808;stroke-miterlimit:4;stroke-dasharray:none;stroke-opacity:1"
   d="M 1.7029509,458.2444 C 1.344298,457.66409 2.4017086,161.57122 2.8690971,131.70373 L 3.2506062,107.32418 13.544192,102.17652 C 30.328585,93.782892 190.43501,17.029887 211.18465,7.4301657 c 5.87041,-2.7159188 11.27567,-4.9380343 12.01167,-4.9380343 0.736,0 3.11205,0.7090495 5.2801,1.5756654 7.91572,3.1640743 82.40788,36.7507362 214.22823,96.5901832 11.69611,5.30941 13.11588,6.09233 13.39428,7.3861 0.28308,1.31555 0.91269,109.43625 1.65445,284.11447 l 0.28241,66.50198 H 417.6895 377.34322 L 377.20677,315.49842 377.07032,172.3363 H 229.7095 82.34869 l -0.136455,143.16212 -0.13645,143.16211 H 42.017959 c -22.031804,0 -40.1735575,-0.18726 -40.3150081,-0.41613 z"
   id="path4750"
   inkscape:connector-curvature="0" /><path
   style="fill:#666666;fill-opacity:1;stroke:#666666;stroke-width:0.29363808;stroke-miterlimit:4;stroke-dasharray:none;stroke-opacity:1"
   d="M 1.6432692,458.14784 C 1.2399515,457.49525 2.4029188,144.71307 2.8882562,123.30633 l 0.36235,-15.98215 6.7720958,-3.48196 C 22.989941,97.174965 188.87453,17.636888 212.59239,6.7144369 c 7.94636,-3.6594215 9.75038,-4.2993987 11.46953,-4.0688129 2.57436,0.3452952 8.79854,3.0193859 46.00928,19.766954 56.58626,25.467977 178.06969,80.520472 182.76809,82.824772 1.79329,0.87952 3.10434,1.91026 3.2906,2.58707 0.30845,1.12074 1.01164,113.09291 1.68867,268.89375 l 0.35609,81.94236 H 417.75793 377.3412 l -0.0394,-93.86125 c -0.0217,-51.62369 -0.0904,-94.95833 -0.15268,-96.29921 -0.0623,-1.34087 -0.16646,-23.46531 -0.23147,-49.16542 l -0.11821,-46.72746 H 229.79908 82.798736 l -0.360465,68.35254 c -0.198254,37.5939 -0.360465,101.9559 -0.360465,143.02667 v 74.67413 H 42.01897 c -24.607272,0 -40.1810577,-0.19775 -40.3757008,-0.51269 z"
   id="path4752"
   inkscape:connector-curvature="0" /><path
   style="fill:#666666;fill-opacity:1;stroke:#666666;stroke-width:0.29363808;stroke-miterlimit:4;stroke-dasharray:none;stroke-opacity:1"
   d="m 108.62442,302.63144 v -21.67071 h 24.92132 24.92131 v 21.67071 21.6707 h -24.92131 -24.92132 z"
   id="path4754"
   inkscape:connector-curvature="0" /><path
   style="fill:#666666;fill-opacity:1;stroke:#666666;stroke-width:0.29363808;stroke-miterlimit:4;stroke-dasharray:none;stroke-opacity:1"
   d="m 171.83065,324.48273 c -0.19864,-0.19865 -0.36117,-10.19426 -0.36117,-22.21247 v -21.8513 h 25.46308 25.46308 v 22.21248 22.21247 h -25.1019 c -13.80605,0 -25.26444,-0.16253 -25.46309,-0.36118 z"
   id="path4756"
   inkscape:connector-curvature="0" /><path
   style="fill:#666666;fill-opacity:1;stroke:#666666;stroke-width:0.29363808;stroke-miterlimit:4;stroke-dasharray:none;stroke-opacity:1"
   d="m 108.08266,364.66384 v -22.48336 h 25.46308 25.46308 v 22.48336 22.48336 h -25.46308 -25.46308 z"
   id="path4758"
   inkscape:connector-curvature="0" /><path
   style="fill:#666666;fill-opacity:1;stroke:#666666;stroke-width:0.29363808;stroke-miterlimit:4;stroke-dasharray:none;stroke-opacity:1"
   d="m 170.92771,364.39295 v -22.21247 h 25.73396 25.73397 v 22.21247 22.21248 h -25.73397 -25.73396 z"
   id="path4760"
   inkscape:connector-curvature="0" /><path
   style="fill:#666666;fill-opacity:1;stroke:#666666;stroke-width:0.29363808;stroke-miterlimit:4;stroke-dasharray:none;stroke-opacity:1"
   d="m 235.39806,364.39295 v -22.21247 h 25.73397 25.73397 v 22.21247 22.21248 h -25.73397 -25.73397 z"
   id="path4762"
   inkscape:connector-curvature="0" /><path
   style="fill:#666666;fill-opacity:1;stroke:#666666;stroke-width:0.29363808;stroke-miterlimit:4;stroke-dasharray:none;stroke-opacity:1"
   d="m 235.39806,426.15447 v -22.21248 h 25.73397 25.73397 v 22.21248 22.21248 h -25.73397 -25.73397 z"
   id="path4764"
   inkscape:connector-curvature="0" /><path
   style="fill:#666666;fill-opacity:1;stroke:#666666;stroke-width:0.29363808;stroke-miterlimit:4;stroke-dasharray:none;stroke-opacity:1"
   d="m 170.92771,426.15447 v -22.21248 h 26.00485 26.00485 v 22.21248 22.21248 h -26.00485 -26.00485 z"
   id="path4766"
   inkscape:connector-curvature="0" /><path
   style="fill:#8c8c8c;fill-opacity:1;stroke:#666666;stroke-width:0.29363808;stroke-miterlimit:4;stroke-dasharray:none;stroke-opacity:1"
   d="m 107.54089,426.15447 v -22.21248 h 26.00485 26.00485 v 22.21248 22.21248 h -26.00485 -26.00485 z"
   id="path4768"
   inkscape:connector-curvature="0" /><path
   style="fill:#8c8c8c;fill-opacity:1;stroke:#666666;stroke-width:0.29363808;stroke-miterlimit:4;stroke-dasharray:none;stroke-opacity:1"
   d="m 107.90207,386.78602 c -0.19865,-0.19865 -0.36118,-10.31616 -0.36118,-22.48336 v -22.12218 h 25.73396 25.73397 v 22.48336 22.48336 h -25.37279 c -13.95503,0 -25.53532,-0.16253 -25.73396,-0.36118 z"
   id="path4770"
   inkscape:connector-curvature="0" /><path
   style="fill:#8c8c8c;fill-opacity:1;stroke:#666666;stroke-width:0.29363808;stroke-miterlimit:4;stroke-dasharray:none;stroke-opacity:1"
   d="m 170.92771,364.39295 v -22.21247 h 25.73396 25.73397 v 22.21247 22.21248 h -25.73397 -25.73396 z"
   id="path4772"
   inkscape:connector-curvature="0" /><path
   style="fill:#8c8c8c;fill-opacity:1;stroke:#666666;stroke-width:0.29363808;stroke-miterlimit:4;stroke-dasharray:none;stroke-opacity:1"
   d="m 170.92771,426.15447 v -22.21248 h 26.00485 26.00485 v 22.21248 22.21248 h -26.00485 -26.00485 z"
   id="path4774"
   inkscape:connector-curvature="0" /><path
   style="fill:#8c8c8c;fill-opacity:1;stroke:#666666;stroke-width:0.29363808;stroke-miterlimit:4;stroke-dasharray:none;stroke-opacity:1"
   d="m 235.39806,364.39295 v -22.21247 h 25.73397 25.73397 v 22.21247 22.21248 h -25.73397 -25.73397 z"
   id="path4776"
   inkscape:connector-curvature="0" /><path
   style="fill:#8c8c8c;fill-opacity:1;stroke:#666666;stroke-width:0.29363808;stroke-miterlimit:4;stroke-dasharray:none;stroke-opacity:1"
   d="m 235.39806,426.15447 v -22.21248 h 25.73397 25.73397 v 22.21248 22.21248 h -25.73397 -25.73397 z"
   id="path4778"
   inkscape:connector-curvature="0" /><path
   style="fill:#8c8c8c;fill-opacity:1;stroke:#666666;stroke-width:0.29363808;stroke-miterlimit:4;stroke-dasharray:none;stroke-opacity:1"
   d="m 299.32665,426.15447 v -22.21248 h 25.73397 25.73396 v 22.21248 22.21248 h -25.73396 -25.73397 z"
   id="path4780"
   inkscape:connector-curvature="0" /><path
   style="fill:#8c8c8c;fill-opacity:1;stroke:#666666;stroke-width:0.29363808;stroke-miterlimit:4;stroke-dasharray:none;stroke-opacity:1"
   d="m 171.83065,324.48273 c -0.19864,-0.19865 -0.36117,-10.19426 -0.36117,-22.21247 v -21.8513 h 25.46308 25.46308 v 22.21248 22.21247 h -25.1019 c -13.80605,0 -25.26444,-0.16253 -25.46309,-0.36118 z"
   id="path4782"
   inkscape:connector-curvature="0" /><path
   style="fill:#8c8c8c;fill-opacity:1;stroke:#666666;stroke-width:0.29363808;stroke-miterlimit:4;stroke-dasharray:none;stroke-opacity:1"
   d="m 108.33221,324.17102 c -0.14431,-0.37604 -0.19854,-10.31315 -0.12052,-22.08245 l 0.14185,-21.39873 h 25.1922 25.19219 v 21.9416 21.94159 l -25.07167,0.14086 c -19.78884,0.11118 -25.12697,-0.003 -25.33405,-0.54287 z"
   id="path4784"
   inkscape:connector-curvature="0" /><path
   style="fill:#8c8c8c;fill-opacity:1;stroke:#8c8c8c;stroke-width:0.29363808;stroke-miterlimit:4;stroke-dasharray:none;stroke-opacity:1"
   d="m 1.5848703,458.05334 c -0.4968068,-0.80385 0.558808,-295.152 1.1899881,-331.81685 l 0.3272789,-19.01143 5.2210274,-2.62061 C 25.903989,95.780027 148.02759,37.093881 198.55786,13.187715 217.22983,4.3538959 221.56435,2.4921314 223.4591,2.4921314 c 2.35402,0 14.04208,5.0589211 67.38369,29.1655386 9.06582,4.097109 15.98268,6.923968 16.47735,6.734147 0.49425,-0.18966 0.71258,-0.100685 0.51951,0.21171 -0.46005,0.744381 4.25315,2.95254 5.3795,2.52032 0.5421,-0.208024 0.77769,-0.131443 0.57994,0.188519 -0.46005,0.744381 4.25316,2.952539 5.3795,2.52032 0.56726,-0.217678 0.78011,-0.135351 0.5621,0.217406 -0.34256,0.554261 8.19214,4.703575 9.91094,4.818405 1.90377,0.127188 2.23096,0.238418 1.96538,0.668147 -0.33934,0.549062 3.35317,2.390221 3.9964,1.992684 0.61193,-0.378197 2.23679,0.273214 1.92795,0.772923 -0.39292,0.635778 3.39323,2.207083 4.39336,1.823298 0.54061,-0.207452 0.77567,-0.1305 0.57806,0.189241 -0.46005,0.744382 4.25315,2.952542 5.3795,2.52032 0.54727,-0.210011 0.77817,-0.132213 0.57642,0.194213 -0.39444,0.638229 3.24585,2.513455 3.98839,2.054535 0.27751,-0.171508 0.50456,-0.102232 0.50456,0.153954 0,0.788304 4.79596,2.84544 5.76598,2.473207 0.54211,-0.208022 0.77769,-0.131443 0.57995,0.188519 -0.46005,0.744383 4.25315,2.952542 5.3795,2.52032 0.54727,-0.210011 0.77817,-0.132213 0.57642,0.194213 -0.39444,0.638229 3.24585,2.513455 3.98839,2.054534 0.27751,-0.171507 0.50456,-0.0613 0.50456,0.244906 0,0.306208 0.40569,0.40106 0.90153,0.210791 0.53814,-0.206505 0.76587,-0.126448 0.56497,0.198607 -0.39445,0.638229 3.24585,2.513455 3.98839,2.054535 0.27751,-0.171508 0.50456,-0.0613 0.50456,0.244906 0,0.306207 0.40568,0.40106 0.90152,0.210791 0.53814,-0.206506 0.76587,-0.126449 0.56497,0.198607 -0.39444,0.638229 3.24585,2.513455 3.98839,2.054534 0.27751,-0.171507 0.50456,-0.0613 0.50456,0.244906 0,0.306208 0.40569,0.40106 0.90153,0.210791 0.53814,-0.206505 0.76586,-0.126448 0.56497,0.198607 -0.39445,0.638229 3.24585,2.513455 3.98839,2.054535 0.27751,-0.171508 0.50456,-0.0613 0.50456,0.244906 0,0.306207 0.40568,0.40106 0.90152,0.210791 0.53814,-0.206506 0.76587,-0.126449 0.56497,0.198606 -0.45956,0.743598 3.16829,2.406939 4.30137,1.972138 0.54061,-0.207454 0.77567,-0.130501 0.57806,0.189239 -0.46005,0.744384 4.25315,2.952542 5.3795,2.52032 0.5421,-0.208023 0.77769,-0.131444 0.57995,0.188519 -0.46006,0.744383 4.25315,2.952542 5.3795,2.520319 0.54727,-0.21001 0.77816,-0.132213 0.57642,0.194213 -0.39444,0.63823 3.24585,2.513456 3.98839,2.054535 0.27751,-0.171507 0.50456,-0.0613 0.50456,0.244906 0,0.306207 0.40569,0.40106 0.90152,0.210791 0.54996,-0.21104 0.76699,-0.128263 0.55654,0.212265 -0.40296,0.651995 3.60368,2.592152 5.11759,2.47811 0.56788,-0.0428 0.91199,0.117233 0.76468,0.355584 -0.34529,0.558687 3.84124,2.455215 5.19476,2.353255 0.56789,-0.0428 0.912,0.117233 0.76469,0.355583 -0.29495,0.477238 3.60057,2.390491 4.86721,2.390491 0.43718,0 0.79488,0.166138 0.79488,0.369193 0,0.391086 3.50285,2.0299 4.87591,2.281205 0.44696,0.08181 0.93455,0.302404 1.08353,0.490218 0.14899,0.18782 4.62233,2.362519 9.94077,4.832672 5.31844,2.47016 9.98217,4.80347 10.36385,5.18515 0.53998,0.53998 0.77147,7.70225 1.04325,32.27842 0.37487,33.89716 1.4066,248.72415 1.40646,292.85192 l -8e-5,26.68206 h -40.3617 -40.36169 l -0.1016,-58.91724 c -0.0559,-32.40448 -0.14493,-59.52672 -0.1979,-60.27165 -0.053,-0.74493 -0.12915,-38.59418 -0.16929,-84.10944 l -0.073,-82.75501 H 229.7095 82.619574 v 50.29445 c 0,27.66195 -0.162292,92.02396 -0.360655,143.02668 L 81.89827,458.66053 H 41.929201 c -28.932624,0 -40.0726866,-0.16766 -40.3443307,-0.60719 z"
   id="path4786"
   inkscape:connector-curvature="0" /><path
   style="fill:#8c8c8c;fill-opacity:1;stroke:#8c8c8c;stroke-width:0.29363808;stroke-miterlimit:4;stroke-dasharray:none;stroke-opacity:1"
   d="M 3.0455073,458.26343 1.2151054,458.03972 1.5564516,366.11418 C 2.0949532,221.09411 2.4176864,159.09643 2.774082,132.205 l 0.3308221,-24.9618 7.3867149,-3.6955 C 34.05187,91.76076 194.05216,15.077765 213.05557,6.4653087 c 4.24909,-1.9257111 8.522,-3.6305284 9.49536,-3.788483 2.64357,-0.4289927 8.27421,1.9284451 56.23832,23.5458713 22.16535,9.989924 25.69767,11.509411 27.5268,11.841094 0.73126,0.132603 1.59101,0.586225 1.91055,1.008049 0.74263,0.980332 4.1636,2.3629 5.05057,2.041158 0.37247,-0.13511 0.67721,0.03038 0.67721,0.367749 0,0.793503 4.27805,2.715013 5.23076,2.349424 0.40078,-0.153791 0.72868,-0.0093 0.72868,0.321168 0,0.680059 7.53319,4.299468 9.95797,4.784424 0.87365,0.174731 2.03796,0.767191 2.58734,1.316577 0.54939,0.549386 1.42553,1.027006 1.94698,1.061377 0.52145,0.03437 1.19189,0.119135 1.48986,0.188364 0.29797,0.06923 0.8609,0.163006 1.25095,0.208392 0.39006,0.04538 0.576,0.29802 0.41322,0.561411 -0.35254,0.570407 2.72477,1.935037 4.12564,1.829513 0.54025,-0.0407 0.98229,0.166569 0.98229,0.460592 0,0.735478 4.33145,2.615708 5.23076,2.270607 0.40078,-0.153791 0.72868,-0.01598 0.72868,0.306196 0,0.768184 3.12982,2.377543 3.80829,1.958231 0.28922,-0.178751 0.52585,-0.103841 0.52585,0.166463 0,0.662235 4.20175,2.52188 5.48041,2.425559 0.56144,-0.04231 1.02081,0.163668 1.02081,0.457691 0,0.735477 4.33145,2.615708 5.23076,2.270608 0.40078,-0.153792 0.72868,-0.01598 0.72868,0.306196 0,0.768183 3.12982,2.377542 3.80829,1.95823 0.28922,-0.178751 0.52585,-0.07447 0.52585,0.231741 0,0.306208 0.3657,0.416409 0.81265,0.244896 0.44696,-0.171519 0.81266,-0.04822 0.81266,0.273972 0,0.768183 3.12981,2.377542 3.80828,1.95823 0.28922,-0.178751 0.52586,-0.07447 0.52586,0.231741 0,0.306207 0.36569,0.416408 0.81265,0.244895 0.44696,-0.171518 0.81265,-0.04822 0.81265,0.273972 0,0.768183 3.12982,2.377542 3.80829,1.95823 0.28922,-0.178751 0.52585,-0.07447 0.52585,0.231741 0,0.306208 0.3657,0.416408 0.81265,0.244896 0.44696,-0.171519 0.81266,-0.04822 0.81266,0.273972 0,0.768183 3.12981,2.377542 3.80828,1.95823 0.28922,-0.178751 0.52586,-0.07447 0.52586,0.231741 0,0.306207 0.36569,0.416408 0.81265,0.244895 0.44696,-0.171518 0.81265,-0.03018 0.81265,0.314041 0,0.781197 3.21558,2.178313 4.17033,1.811942 0.38807,-0.148915 0.70558,0.01105 0.70558,0.355459 0,0.802965 4.26952,2.731106 5.23076,2.362243 0.40078,-0.153792 0.72868,0.0022 0.72868,0.346596 0,0.802965 4.26953,2.731105 5.23077,2.362243 0.40077,-0.153792 0.72868,-0.01598 0.72868,0.306196 0,0.890292 3.0559,2.279655 4.11781,1.872159 0.63188,-0.242473 0.80985,-0.155259 0.54795,0.268517 -0.25343,0.410058 -0.0964,0.515784 0.45289,0.304988 0.46244,-0.177456 0.84079,-0.05903 0.84079,0.263174 0,0.751947 2.86066,2.238947 4.30724,2.238947 0.61074,0 1.59183,0.481388 2.18019,1.069753 0.58837,0.588365 1.7464,1.212379 2.5734,1.386687 0.827,0.174314 1.86934,0.543111 2.31629,0.819543 2.21112,1.36753 3.62869,2.051273 4.60947,2.223301 0.5935,0.1041 1.20099,0.343936 1.34998,0.532958 0.14899,0.189023 5.58366,2.788484 12.07705,5.776582 6.4934,2.988099 12.36872,5.801489 13.05626,6.251989 1.04199,0.68274 1.31032,1.46705 1.61185,4.71148 0.41346,4.4486 1.19935,119.06523 1.74861,255.01909 l 0.37481,92.77772 H 417.78034 377.3412 l -0.073,-59.459 c -0.0401,-32.70246 -0.11632,-60.0685 -0.16929,-60.81343 -0.053,-0.74493 -0.14202,-38.35038 -0.1979,-83.56766 l -0.1016,-82.21325 H 229.7095 82.619574 l -0.06249,76.79557 c -0.03435,42.23756 -0.119135,77.03937 -0.188367,77.33734 -0.06923,0.29797 -0.163002,30.10197 -0.208391,66.2311 l -0.08252,65.68933 -38.600948,-0.0867 c -21.230522,-0.0477 -39.4246296,-0.18737 -40.4313507,-0.3104 z"
   id="path4788"
   inkscape:connector-curvature="0" /><path
   style="fill:#8c8c8c;fill-opacity:1;stroke:#8c8c8c;stroke-width:0.29363808;stroke-miterlimit:4;stroke-dasharray:none;stroke-opacity:1"
   d="m 108.62442,302.63144 v -21.67071 h 24.92132 24.92131 v 21.67071 21.6707 h -24.92131 -24.92132 z"
   id="path4790"
   inkscape:connector-curvature="0" /><path
   style="fill:#8c8c8c;fill-opacity:1;stroke:#8c8c8c;stroke-width:0.29363808;stroke-miterlimit:4;stroke-dasharray:none;stroke-opacity:1"
   d="m 172.01124,302.63144 v -21.67071 h 24.92132 24.92131 v 21.67071 21.6707 h -24.92131 -24.92132 z"
   id="path4792"
   inkscape:connector-curvature="0" /><path
   style="fill:#8c8c8c;fill-opacity:1;stroke:#8c8c8c;stroke-width:0.29363808;stroke-miterlimit:4;stroke-dasharray:none;stroke-opacity:1"
   d="m 108.08266,364.66384 v -21.9416 h 25.19219 25.1922 v 21.9416 21.94159 h -25.1922 -25.19219 z"
   id="path4794"
   inkscape:connector-curvature="0" /><path
   style="fill:#8c8c8c;fill-opacity:1;stroke:#8c8c8c;stroke-width:0.29363808;stroke-miterlimit:4;stroke-dasharray:none;stroke-opacity:1"
   d="m 171.46948,364.39295 v -21.67071 h 25.19219 25.1922 v 21.67071 21.67071 h -25.1922 -25.19219 z"
   id="path4796"
   inkscape:connector-curvature="0" /><path
   style="fill:#8c8c8c;fill-opacity:1;stroke:#8c8c8c;stroke-width:0.29363808;stroke-miterlimit:4;stroke-dasharray:none;stroke-opacity:1"
   d="m 235.93983,364.39295 v -21.67071 h 25.1922 25.1922 v 21.67071 21.67071 h -25.1922 -25.1922 z"
   id="path4798"
   inkscape:connector-curvature="0" /><path
   style="fill:#8c8c8c;fill-opacity:1;stroke:#8c8c8c;stroke-width:0.29363808;stroke-miterlimit:4;stroke-dasharray:none;stroke-opacity:1"
   d="m 108.08266,426.15447 v -21.67071 h 25.46308 25.46308 v 21.67071 21.67071 h -25.46308 -25.46308 z"
   id="path4800"
   inkscape:connector-curvature="0" /><path
   style="fill:#8c8c8c;fill-opacity:1;stroke:#8c8c8c;stroke-width:0.29363808;stroke-miterlimit:4;stroke-dasharray:none;stroke-opacity:1"
   d="m 171.46948,426.15447 v -21.67071 h 25.46308 25.46308 v 21.67071 21.67071 h -25.46308 -25.46308 z"
   id="path4802"
   inkscape:connector-curvature="0" /><path
   style="fill:#8c8c8c;fill-opacity:1;stroke:#8c8c8c;stroke-width:0.29363808;stroke-miterlimit:4;stroke-dasharray:none;stroke-opacity:1"
   d="m 235.93983,426.15447 v -21.67071 h 25.1922 25.1922 v 21.67071 21.67071 h -25.1922 -25.1922 z"
   id="path4804"
   inkscape:connector-curvature="0" /><path
   style="fill:#8c8c8c;fill-opacity:1;stroke:#8c8c8c;stroke-width:0.29363808;stroke-miterlimit:4;stroke-dasharray:none;stroke-opacity:1"
   d="m 299.86842,426.15447 v -21.67071 h 25.1922 25.1922 v 21.67071 21.67071 h -25.1922 -25.1922 z"
   id="path4806"
   inkscape:connector-curvature="0" /></svg>